<svg width="1077" height="331" viewBox="0 0 1077 331" fill="none" xmlns="http://www.w3.org/2000/svg">
<g clip-path="url(#clip0_1_2)">
<rect width="1077" height="331" fill="#FDE67E"/>
<g filter="url(#filter0_b_1_2)">
<path fill-rule="evenodd" clip-rule="evenodd" d="M0 68.4279L44.875 101.249C89.75 134.071 179.5 199.714 269.25 227.065C359 254.416 448.75 243.476 538.5 210.654C628.25 177.833 718 123.13 807.75 112.19C897.5 101.249 987.25 134.071 1032.12 150.482L1077 166.892V331H1032.12C987.25 331 897.5 331 807.75 331C718 331 628.25 331 538.5 331C448.75 331 359 331 269.25 331C179.5 331 89.75 331 44.875 331H0V68.4279Z" fill="url(#paint0_linear_1_2)"/>
<path fill-rule="evenodd" clip-rule="evenodd" d="M0 68.4279L44.875 101.249C89.75 134.071 179.5 199.714 269.25 227.065C359 254.416 448.75 243.476 538.5 210.654C628.25 177.833 718 123.13 807.75 112.19C897.5 101.249 987.25 134.071 1032.12 150.482L1077 166.892V331H1032.12C987.25 331 897.5 331 807.75 331C718 331 628.25 331 538.5 331C448.75 331 359 331 269.25 331C179.5 331 89.75 331 44.875 331H0V68.4279Z" stroke="black"/>
</g>
<path fill-rule="evenodd" clip-rule="evenodd" d="M0 147.995L749.601 427.011V566.519H0V147.995Z" fill="url(#paint1_linear_1_2)"/>
</g>
<defs>
<filter id="filter0_b_1_2" x="-4" y="64.4279" width="1085" height="270.572" filterUnits="userSpaceOnUse" color-interpolation-filters="sRGB">
<feFlood flood-opacity="0" result="BackgroundImageFix"/>
<feGaussianBlur in="BackgroundImageFix" stdDeviation="2"/>
<feComposite in2="SourceAlpha" operator="in" result="effect1_backgroundBlur_1_2"/>
<feBlend mode="normal" in="SourceGraphic" in2="effect1_backgroundBlur_1_2" result="shape"/>
</filter>
<linearGradient id="paint0_linear_1_2" x1="0" y1="199.714" x2="1077" y2="199.714" gradientUnits="userSpaceOnUse">
<stop stop-color="#4D194D"/>
<stop offset="1" stop-color="#848484"/>
</linearGradient>
<linearGradient id="paint1_linear_1_2" x1="374.8" y1="147.995" x2="374.8" y2="566.519" gradientUnits="userSpaceOnUse">
<stop stop-color="#ECAF23"/>
<stop offset="1" stop-color="#4D194D"/>
</linearGradient>
<clipPath id="clip0_1_2">
<rect width="1077" height="331" fill="white"/>
</clipPath>
</defs>
</svg>
